<svg id="Layer_1" data-name="Layer 1" xmlns="http://www.w3.org/2000/svg" width="150px" height="75px" viewBox="0 0 2724.87 866.86"><defs><style>.cls-1{fill:#fa0;}.cls-2{fill:#323232;}.cls-3{fill:#fff;}.cls-4{fill:#e67300;}</style></defs><path class="cls-1" d="M250.74,402.15v52.78h23.57V410.35Zm0,76.34v52.92a27.27,27.27,0,0,0,.29,3.87,21.47,21.47,0,0,0,.52,3.48l22.76-14V478.49ZM748.45,268.84V377.23l-23.56,8.2V268.84a11.52,11.52,0,0,0-4.71-9.33c-.24-.19-.38-.37-.61-.52l-56.46-37.17a9.79,9.79,0,0,0-1.6-.76,11.27,11.27,0,0,0-4.9-1.22,11.77,11.77,0,0,0-4.52,1,10.47,10.47,0,0,0-1.93.95L622.54,240l-22.66,14.89-35.11-9.14-62.2-16.26a.59.59,0,0,0-.29,0,13.8,13.8,0,0,0-1.41-.23,8.11,8.11,0,0,0-2.54,0,11.35,11.35,0,0,0-1.37.18.88.88,0,0,1-.33.05L398.8,254.52l-81.94-53.86-24.32-16c-.19-.15-.42-.19-.61-.33s-.71-.43-1.08-.62l-.9-.28a.82.82,0,0,0-.33-.09c-.05,0-.09,0-.19-.1l-.42-.14a7.29,7.29,0,0,0-.9-.14,6.49,6.49,0,0,0-1-.19,6,6,0,0,0-.95,0,6.54,6.54,0,0,0-1,0,4.63,4.63,0,0,0-.8.14h-.28l-.8.14h-.05a1.8,1.8,0,0,1-.38.14c0,.05-.09.05-.18.05a13.21,13.21,0,0,0-1.28.47,1.63,1.63,0,0,0-.33.19c-.18.1-.33.14-.51.24a6.48,6.48,0,0,0-.85.47c-.38.23-.66.52-1,.75l-.57.43v0a6.71,6.71,0,0,0-.94,1,13,13,0,0,0-1.23,1.7c0,.05-.09.09-.09.14a.62.62,0,0,1-.14.19,3,3,0,0,0-.24.56,4.36,4.36,0,0,0-.33.76s0,.14-.09.19-.09.19-.14.28c-.19.61-.33,1.22-.47,1.84a1.84,1.84,0,0,1-.05.52,2.56,2.56,0,0,1,0,.61c0,.28,0,.56,0,.85v191l-23.57-8.2V193l0-.56c.05-.66.1-1.32.19-1.89s.14-1.27.28-2.12a34.83,34.83,0,0,1,1.42-5.56c.28-.8.56-1.51.8-2.07a29.18,29.18,0,0,1,1.6-3.3,18.93,18.93,0,0,1,1-1.74,33.84,33.84,0,0,1,3.2-4.34,15.38,15.38,0,0,1,1.41-1.55l.62-.76,1.32-1.13c.61-.52,1.13-.94,1.55-1.27s1.46-1.18,2.64-1.93,2.12-1.23,2.5-1.42,1.46-.8,2.73-1.36a31.33,31.33,0,0,1,3.3-1.18c.28-.1.52-.19.85-.28l2-.66,1.69-.19c.14,0,.33-.05.47-.05a33.46,33.46,0,0,1,5.75-.47,34.89,34.89,0,0,1,19.42,5.8L403,229.12l87.83-22.53a21.46,21.46,0,0,1,2.31-.47c1.13-.19,2.08-.28,2.69-.37a27.27,27.27,0,0,1,3.82-.24,33.47,33.47,0,0,1,4,.28c.43.05,1.09.1,1.89.24l1.13.09,1.84.52,87.17,22.76,41.52-27.28a35.21,35.21,0,0,1,38.87,0l56.46,37.22A35.29,35.29,0,0,1,748.45,268.84Z"/><path class="cls-2" d="M828,454.92H724.87V410.36l67.41-23.45a11.78,11.78,0,0,0-7.75-22.25l-59.66,20.75V268.84a11.8,11.8,0,0,0-5.3-9.84l-29.19-19.23-27.28-18a11.78,11.78,0,0,0-13,0l-50.26,33.07-97.33-25.43c-.1,0-.2,0-.3,0a10.52,10.52,0,0,0-1.37-.2,11.25,11.25,0,0,0-1.29-.12,11.63,11.63,0,0,0-1.3.12,12.34,12.34,0,0,0-1.36.18,2.54,2.54,0,0,1-.29,0l-97.87,25.13-106.24-69.9c-.19-.13-.4-.21-.6-.33a9.71,9.71,0,0,0-1.1-.59,8.08,8.08,0,0,0-.9-.32c-.31-.11-.62-.24-.93-.32s-.61-.11-.92-.16-.66-.14-1-.17-.64,0-1,0-.65,0-1,0a11.35,11.35,0,0,0-1.91.31h0c-.19,0-.37.13-.56.19a11.15,11.15,0,0,0-1.27.43,9.93,9.93,0,0,0-.91.49,9,9,0,0,0-.81.43c-.36.23-.68.51-1,.77-.17.14-.36.26-.52.41l0,0a11.59,11.59,0,0,0-.95,1,11.15,11.15,0,0,0-1.22,1.69c-.07.11-.15.21-.21.32a10.74,10.74,0,0,0-.58,1.3c-.07.16-.15.31-.21.47a12.22,12.22,0,0,0-.48,1.87c0,.16,0,.33,0,.5a11.81,11.81,0,0,0-.12,1.45s0,0,0,.06V385.41l-59.66-20.75a11.78,11.78,0,1,0-7.74,22.25l67.4,23.45v44.56H171.18a11.78,11.78,0,0,0,0,23.56h103.1v46.35l-69.69,42.73a11.78,11.78,0,1,0,12.32,20.08l68.92-42.26,86.86,57.22L493.1,681.94c.14.09.3.12.45.21s.28.23.44.32a10.85,10.85,0,0,0,1.52.59c.32.12.62.28.94.37a11.08,11.08,0,0,0,6.25,0,8.7,8.7,0,0,0,1-.38,10.11,10.11,0,0,0,1.5-.58c.17-.09.29-.23.45-.32s.31-.12.45-.21L626.47,602.6l86.85-57.22,68.93,42.26a11.78,11.78,0,1,0,12.31-20.08l-69.69-42.73V478.48H828a11.78,11.78,0,0,0,0-23.56ZM961.21,346.68H907.77v38.94h51.6v22.11h-51.6v70.48h-23.5V324.58h76.94Zm117.65,0h-61.27v38.94H1077v22.11h-59.43V456.1h61.27v22.11H994.09V324.58h84.77Zm66.42-22.1c18.66,0,30.64,2.3,40.54,9,16.82,11.28,18.2,29.48,18.2,36.16,0,22.11-13.59,38.23-34.09,42.84l47.91,65.65h-28.33l-44-62.88h-4.14v62.88h-23.5V324.58Zm-3.91,70.48h7.37c6.45,0,32.71-.69,32.71-25.11,0-21.65-20.51-23.72-32-23.72h-8.06Zm204.81,46.07h-65.65l-16.82,37.08h-25.33l76.47-162.62,72.79,162.62H1362.3ZM1336.73,419,1313.93,367,1290.2,419Zm101.52-94.43V456.1h45.15v22.11h-68.64V324.58Zm216.28,22.1h-53.44v38.94h51.6v22.11h-51.6v70.48H1577.6V324.58h76.93Zm60.29-22.1c18.66,0,30.64,2.3,40.54,9,16.82,11.28,18.2,29.48,18.2,36.16,0,22.11-13.59,38.23-34.09,42.84l47.91,65.65h-28.33l-44-62.88h-4.14v62.88h-23.49V324.58Zm-3.91,70.48h7.37c6.45,0,32.71-.69,32.71-25.11,0-21.65-20.5-23.72-32-23.72h-8.06Zm189.95-48.38h-61.27v38.94H1899v22.11h-59.43V456.1h61.27v22.11H1816.1V324.58h84.76Zm123.78,0h-61.27v38.94h59.43v22.11h-59.43V456.1h61.27v22.11h-84.77V324.58h84.77Zm71.26-22.1c21.42,0,40.08,2.3,57.12,15,18.66,14,29.49,36.39,29.49,61.95s-10.6,47.69-30.87,62c-18,12.67-34.78,14.74-56.2,14.74h-31.79V324.58Zm-8.75,131.52h10.13c11.52,0,27.41-.92,40.77-10.82,10.6-8.07,21-22.81,21-43.78,0-20.27-9.67-36.16-20.73-44.22-13.36-9.67-29.71-10.6-41-10.6h-10.13Zm283.63-54.6c0,45.15-33.86,79.71-79.93,79.71s-79.93-34.56-79.93-79.71,33.86-79.69,79.93-79.69S2370.78,356.37,2370.78,401.5Zm-23.5,0c0-34.09-23.49-58-56.43-58s-56.44,24-56.44,58,23.5,58.05,56.44,58.05S2347.28,435.59,2347.28,401.5Zm49.58,76.71,32.25-165.16,53.44,119.32,53.9-119.32,29,165.16h-23.95l-15.67-92.59-44.68,99.73-44.23-100-16.13,92.83Z"/><path class="cls-3" d="M701.31,510.38l-95.56-58.59L674,428l27.29-9.49ZM511.36,256.08,595.26,278l36.4,45L541.39,491.17h-30ZM575,479.54,604.32,581H519.46ZM701.31,393.6l-98.48,34.26,85.41-161.28,13.07,8.61ZM511.36,650.23V604.55H580.7Zm115.51-76.1-28.72-99.36,93,57Z"/><path class="cls-4" d="M528.62,514.73l-29,53.38-29-53.38h58.08Zm128-269,11.86,7.81L648.8,290.71l-5.12,9.67-24.36-30.1ZM374.55,276.13l-19.15,24.1-11.68-22.06L318,229.59,379.42,270ZM724.89,478.48h23.56v52.93a21.38,21.38,0,0,1-.33,3.87,29,29,0,0,1-.52,3.48l-22.71-13.92Zm0-68.13v44.57h23.56V402.15Zm-11.57,135L626.47,602.6,506.06,681.94c-.14.09-.31.12-.45.21a2.27,2.27,0,0,0-.25.18l-.2.16a14.76,14.76,0,0,1-1.46.56l-.51.19a4.14,4.14,0,0,1-.49.19,12.2,12.2,0,0,1-1.7.24,8,8,0,0,1-1.21.18c-.1,0-.14,0-.19,0a12.08,12.08,0,0,1-3.16-.47c-.33-.09-.56-.24-.89-.33a11.17,11.17,0,0,1-1.56-.61c-.19-.1-.28-.24-.47-.33l-.22-.13a.72.72,0,0,1-.2-.09L372.69,602.6l-86.86-57.22-21.94,13.45a31.26,31.26,0,0,0,2.69,2.08L480.14,701.62c.42.28.85.52,1.27.8s.94.57,1.41.8a33.47,33.47,0,0,0,4.43,1.93,25.05,25.05,0,0,0,2.83,1,35.37,35.37,0,0,0,9.52,1.36h2.45l.94-.23a30.59,30.59,0,0,0,5.89-1.09,22.82,22.82,0,0,0,3.21-1.08,29.31,29.31,0,0,0,4.24-1.84c.42-.23.85-.47,1.27-.75s.94-.57,1.41-.85L732.53,561a27.15,27.15,0,0,0,2.74-2.12Zm170.95,92.06V525.08l76.38,80V532.18h16.09V643.9l-76.37-80v73.54Zm182-33.14c0,20.35-15.47,35.19-35.51,35.19s-35.51-14.84-35.51-35.19c0-20.52,15.47-35,35.51-35S1066.31,583.78,1066.31,604.3Zm-15.78.16c0-15.15-10-21.31-19.73-21.31s-19.73,6.16-19.73,21.31c0,12.78,7.58,21.14,19.73,21.14S1050.53,617.24,1050.53,604.46ZM1081.66,571h15.47v6a27,27,0,0,1,6.46-5.53,17.93,17.93,0,0,1,9.47-2.21,23,23,0,0,1,12.15,3.16l-6.31,14.05a14,14,0,0,0-7.89-2.37c-3.31,0-6.63.47-9.62,3.63-4.26,4.58-4.26,10.89-4.26,15.3v34.41h-15.47Zm72.26,14.2v52.24h-15.46V585.2H1132V571h6.47V546.7h15.46V571h11.84v14.2Zm22.53-62.8h15.46v54.28a23.92,23.92,0,0,1,17.83-7.42c12.15,0,17.68,6.32,19.57,9,4.1,6,4.26,13.73,4.26,18.46v40.72h-15.46v-39.3c0-3.94,0-8.2-3-11.52a11.69,11.69,0,0,0-8.68-3.47,13.68,13.68,0,0,0-11.36,5.53c-2.21,3.15-3.16,8.2-3.16,16.72v32h-15.46Zm135.44,99.88a34.76,34.76,0,0,1-11.21,12.16c-5.36,3.47-12.46,5-19.56,5-8.84,0-16.1-2.21-22.41-8.52s-9.79-15.47-9.79-25.41c0-10.26,3.64-20.2,10.58-27.3a30.27,30.27,0,0,1,22.25-9c10.57,0,17.36,4.58,21.3,8.69,8.52,8.83,9.31,21.14,9.31,28.08v1.89h-47.65c.31,4.74,2.36,10.1,5.68,13.42,3.63,3.63,8,4.26,11.83,4.26a16.25,16.25,0,0,0,10.57-3.32A23.92,23.92,0,0,0,1299,615Zm-15.31-27a16.09,16.09,0,0,0-4.73-9,16.12,16.12,0,0,0-21.3.47,17.35,17.35,0,0,0-4.74,8.52ZM1328,571h15.46v6a27,27,0,0,1,6.47-5.53,17.91,17.91,0,0,1,9.47-2.21,23,23,0,0,1,12.15,3.16l-6.31,14.05a14,14,0,0,0-7.89-2.37c-3.32,0-6.63.47-9.63,3.63-4.26,4.58-4.26,10.89-4.26,15.3v34.41H1328Zm53.13,0h15.46v6.15a22.92,22.92,0,0,1,18-7.89c12.31,0,17.52,6.16,19.57,9,2.53,3.63,4.1,8.21,4.1,18.46v40.72h-15.46V600.51c0-16.89-6.31-17.36-12.15-17.36-6.94,0-14,1-14,22.41v31.88h-15.46Zm194.23-14.2c-11.68-10.57-22.57-11.68-28.56-11.68-22.88,0-38.35,16.89-38.35,40.08,0,22.25,16.1,39.45,38.51,39.45,12.62,0,22.4-6.47,28.4-12.15v19.1a57.45,57.45,0,0,1-28.88,7.89c-19.09,0-31.09-8.68-37.24-14.52-12.31-11.52-16.88-24.94-16.88-39.77,0-19.4,8-32.82,16.88-41.18,10.89-10.26,23.51-13.73,38-13.73,9.63,0,18.94,1.74,28.09,7.57Zm64.46,14.2h15.47v66.44h-15.47v-7a25.51,25.51,0,0,1-19.88,9c-20.52,0-32.2-17-32.2-35.35,0-21.62,14.84-34.88,32.35-34.88a24.24,24.24,0,0,1,19.73,9.47Zm-36.29,33.46c0,11.51,7.26,21.14,18.46,21.14,9.78,0,18.77-7.1,18.77-21,0-14.51-9-21.46-18.77-21.46C1610.75,583.15,1603.49,592.62,1603.49,604.46Zm86.08-82.06v115H1674.1v-115Zm26.5,11.2a9.94,9.94,0,1,1-9.94,9.95A9.71,9.71,0,0,1,1716.07,533.6Zm7.73,37.4v66.44h-15.46V571Zm35.91,14.2v52.24h-15.46V585.2h-6.64V571h6.64V548c0-10.25,2.68-16.73,6.46-20.83,2.84-3,7.74-6.47,15.79-6.47a24.59,24.59,0,0,1,9.94,1.9v15.3c-3.16-1.89-5.21-2.36-7.42-2.36a8.94,8.94,0,0,0-6.78,2.52c-.8.79-2.53,3.16-2.53,7.89V571h16.73v14.2Zm93.52,19.1c0,20.35-15.46,35.19-35.51,35.19s-35.5-14.84-35.5-35.19c0-20.52,15.46-35,35.5-35S1853.23,583.78,1853.23,604.3Zm-15.78.16c0-15.15-9.94-21.31-19.73-21.31S1798,589.31,1798,604.46c0,12.78,7.57,21.14,19.72,21.14S1837.45,617.24,1837.45,604.46ZM1868.58,571H1884v6a27.09,27.09,0,0,1,6.48-5.53,17.87,17.87,0,0,1,9.46-2.21,23,23,0,0,1,12.15,3.16l-6.31,14.05a14,14,0,0,0-7.89-2.37c-3.31,0-6.63.47-9.62,3.63-4.27,4.58-4.27,10.89-4.27,15.3v34.41h-15.46Zm53.14,0h15.46v6.15a22.91,22.91,0,0,1,18-7.89c12.31,0,17.52,6.16,19.57,9,2.52,3.63,4.1,8.21,4.1,18.46v40.72h-15.47V600.51c0-16.89-6.31-17.36-12.15-17.36-6.94,0-14,1-14,22.41v31.88h-15.46Zm83.4-37.4a9.94,9.94,0,1,1-9.95,9.95A9.71,9.71,0,0,1,2005.12,533.6Zm7.73,37.4v66.44h-15.47V571Zm67,0h15.47v66.44h-15.47v-7a25.51,25.51,0,0,1-19.88,9c-20.51,0-32.19-17-32.19-35.35,0-21.62,14.83-34.88,32.35-34.88a24.23,24.23,0,0,1,19.72,9.47Zm-36.29,33.46c0,11.51,7.26,21.14,18.46,21.14,9.78,0,18.78-7.1,18.78-21,0-14.51-9-21.46-18.78-21.46C2050.81,583.15,2043.55,592.62,2043.55,604.46Z"/></svg>